<svg version="1.1" id="Calque_1" xmlns="http://www.w3.org/2000/svg" x="0" y="0" width="613.6" height="404.8" viewBox="0 0 613.6 404.8" xml:space="preserve">
    <style>
        .st0{fill:#0060a9}
    </style>
    <path d="M377.3 67.7c-6.5-5.6-17.4-11.5-28.1-11.6-24.5-.1-39.2 18.2-47.7 38.5-9.7 23.1-5.5 41.9 21.1 42.1 14 .1 30.9-6.6 45.4-12.5l-21.4 26.3c-12.9 2.9-25.3 3.9-37.3 3.8-18.3-.1-32.5-3-42-14.7-9.2-11-10-26.8-2.8-43.8 6.5-15.4 20.2-31.6 37.1-41.9 18.2-10.8 38.5-14.7 56-14.6l26.3 2.3-6.6 26.1zM371.1 123.5c6.8 7.8 19.3 13.2 32.1 13.3 8.1 0 20.1-2.4 24-11.8 8.6-20.4-47.8-16.6-32.1-54.1 4-9.6 12.9-18.7 23.4-24.2 11.7-6 23.3-7.9 34.2-7.9 10 .1 20.4 1.8 28.3 5.2l-3.2 22c-5.6-4.6-17.9-10.3-26.9-10.4-7-.1-16.8 2.7-20.1 10.6-3.4 8 5.7 11.3 11.2 14 7.1 3.6 13.8 6.8 18.6 12.7 5.6 7.1 7.2 14.7 2.6 25.4-4.5 10.9-13.5 20.6-25.7 27.1-13.6 7.1-25.7 8.6-38.4 8.5-11.8-.1-22.8-2.2-32.2-6.3l4.2-24.1zM526.3 138c-24.7-.1-18.4-31-11-48.8 6.7-16.1 20-33.3 40.5-33.2 13.1.1 15.9 8.3 16.3 18.6.3 9.2-2.3 20.1-6.5 30.2-6.4 15.1-19.5 33.3-39.3 33.2zm-1.5 15.5c8.4 10 20.8 25.7 37.8 25.7 16.4 0 24.5-4.5 34.8-10.6-18.7-1.3-27.8-14.8-35.7-26.6 18.8-11.1 33.3-28.5 40.5-45.6 6.3-15.1 6.6-30.8-.3-41.6-7.1-11-20.2-15.4-36.5-15.5C529.1 39 492.7 62 478.5 96c-13 31.2-.6 58.1 34.5 58.3l11.8-.8z"/>
    <g>
        <path class="st0" d="M48.6 38.9c2.8-4.2-30.8 42.8-34.3 48.4C6.8 99.4-10 182 61.7 212.6c57.5 24.5 113.5-1.8 140.3-44.7 39.6-63.5 19.2-119.8-12.8-145.8C142.5-16 81-.8 56.1 37.2c-17.6 26.8-26.8 72.5-2.3 104 36.6 46.9 101.3 32.8 117.9-9.7 7.8-20.1 2.4-41.6 3-35.3 0 .5 0 2.2-.5 6.4-.3 2.3-3.4 45.2-55.8 40.2-35.4-3.4-60-53.5-34.8-87.2C128.4-4.3 244 56.8 186 155c-27.9 47.2-91.2 44.6-124.3 11.8-34.4-34-38.2-90.8-13.1-127.9z"/>
        <ellipse transform="rotate(-25.171 132.044 98.84)" class="st0" cx="132" cy="98.8" rx="38.5" ry="38.5"/>
    </g>
    <g>
        <path d="M32.3 306.3l-.4 9.9-.3.4c-1.9.9-5.1 2.3-10.1 2.3C7.2 318.9.3 307.7.3 295c0-11.6 5.3-24.9 20.5-24.9 5.2 0 8.8 1.5 10.9 2.5l.2.3-.5 9.2-.5.1c-1.5-1.3-3.9-3.2-8.3-3.2-9.6 0-11.3 10-11.3 15.7 0 9.4 4.7 15.1 11.4 15.1 4.9 0 7.9-2.5 9.2-3.7l.4.2zM45.2 296.2c.2-2.1.6-4.8 2.8-6.4.7-.5 1.5-.7 2.4-.7 1.9 0 3.1 1.1 3.8 2.3.8 1.5.9 3 .9 4.6l-9.9.2zM63 308.1c-2.2 1.3-4.9 2.9-9.2 2.9-3.5 0-5.9-1.3-7.4-3.6-.9-1.4-1.1-2.7-1.3-4l19-.4.4-.5c-.1-3.3-.1-6.6-.9-9.9-2.1-7.8-6.6-9.4-8.6-9.9-1.5-.5-2.8-.6-4.2-.6-9.2 0-15.3 6.8-15.3 18.3 0 3.1.5 6.4 1.4 8.7 3.4 9 11.4 9.7 15.6 9.7 4.9 0 7-1 10.1-2.4l.4-.5.4-7.5-.4-.3zM98.4 317.9c-4.7 0-5.7.1-9.6.2l-.4-.4c0-2.3.1-4.6.1-6.8 0-2.5-.1-11.6-.2-13.8-.2-2.4-.5-6.3-3.7-6.3-1.9 0-3.3 1.1-4.5 2.1.1 11.9.1 14.5.5 24.7l-.4.4c-4.7 0-5.6 0-9.8.2l-.3-.4c.1-4.2.1-8.5.1-12.7 0-10.8-.4-15-.8-20.8l.3-.5c4.4-.7 5.4-.9 9.9-1.9l.6.5-.1 3.7c2.7-1.8 5.8-3.9 9.4-3.9 2.1 0 5.5.5 7.3 4 1.5 2.7 1.5 5.8 1.6 12.1v5.2c.1 6.5.1 8.4.4 14.2l-.4.2zM122.4 310.6l-.6 6.8-.4.5c-2.1.4-3.9.8-6.2.8-9.2 0-9.3-6.6-9.3-12.7 0-1.7.1-3.4.1-5l.2-10.5-3.7.1-.4-.4.5-7.1.3-.3 3.2.1-.1-8.3.2-.5c4.2-1.2 5.2-1.5 9.2-2.9l.4.4-.2 11.1h5.9l.4.4-.6 7.1-.4.4-5.3-.3-.1 9.4c-.1 2.7-.1 6.3.1 8 .1 1 .4 3.1 3.4 3.1 1 0 1.7-.3 2.7-.6l.7.4zM142.8 293.6c-.8-.5-1.4-.9-2.4-.9-4 0-4 4.4-4 7.4 0 4.6.4 12.1.6 17.4l-.3.5c-4.7-.1-5.6 0-10 .2l-.3-.4c.1-5.5.2-10.9.2-16.4 0-9.2-.2-12.2-.5-17.2l.4-.4c4.3-.7 5.4-.9 9.8-2l.5.5-.2 6.1c1.9-4.9 4.6-6.4 7-6.4.4 0 .8.1 1.2.1l.4.5-1.6 10.8-.8.2zM164.9 308.7c-1.2.8-2.8 1.7-4.8 1.7-2.1 0-3.9-1.3-3.9-4 0-4.4 4.6-5.1 8.6-5.7v8zm9.7-10.5c.1-6 .1-8.6-1.5-11.3-1.2-2.1-3.5-4.8-11.1-4.8-5.1 0-8.2 1.1-11.5 2.2l-.4.5-.3 7.2.5.3c2.1-.9 5.9-2.7 9.8-2.7 2.2 0 3.1.4 3.8 1.3.6.7.8 1.9.8 2.8-7.1 1.1-10.4 1.8-13.9 4.2-3.3 2.3-4.4 6.1-4.4 9.1 0 7.1 4.5 11.7 10.3 11.7 4.4 0 6.9-2.4 8.2-3.5v2.5l.4.5c4.2-.2 5.5-.3 9.3-.2l.3-.5c-.4-6.5-.4-8.2-.4-14.4l.1-4.9zM191.4 317.9c-4.3-.1-5.9 0-9.8.2l-.4-.5c.2-6.6.4-10.5.4-17.7 0-3.9 0-7.8-.1-11.7-.1-10.7-.2-12.9-.8-21l.2-.4L191 265l.4.5c-.2 7.2-.3 10.2-.3 16.5 0 21 .3 27.9.6 35.6l-.3.3zM206.9 296.2c.2-2.1.6-4.8 2.8-6.4.7-.5 1.5-.7 2.4-.7 1.9 0 3.1 1.1 3.8 2.3.8 1.5.9 3 .9 4.6l-9.9.2zm17.8 11.9c-2.2 1.3-4.9 2.9-9.2 2.9-3.5 0-5.9-1.3-7.3-3.6-.9-1.4-1.1-2.7-1.3-4l19-.4.4-.5c-.1-3.3-.1-6.6-.9-9.9-2.1-7.8-6.6-9.4-8.6-9.9-1.5-.5-2.8-.6-4.2-.6-9.2 0-15.3 6.8-15.3 18.3 0 3.1.5 6.4 1.4 8.7 3.4 9 11.4 9.7 15.6 9.7 4.9 0 7-1 10.1-2.4l.4-.5.4-7.5-.5-.3zM267.7 290.5c.1 8.8 0 10.5-.2 18.6-1.2.8-2.4 1.6-4 1.6-5.7 0-5.7-8.2-5.7-9.6 0-5.1 1.3-10.8 7.9-10.8.6 0 1.1.1 2 .2zm10 27c-.2-6-.4-10-.4-18.6 0-17.5.2-24.7.5-33.5l-.4-.4-9.7 1.7-.3.4c.4 6.2.4 7.9.4 15.5-4.4-.1-9.9-.3-14.4 3.7-4.1 3.6-5.8 9.1-5.8 15.9 0 5.2 1.2 10.3 4.7 13.6 2.6 2.4 5.8 2.9 7.7 2.9 4.2 0 6.4-2.2 7.8-3.6l-.1 2.6.3.4c4.1-.2 5.2-.2 9.6-.2l.1-.4zM292.7 296.2c.2-2.1.6-4.8 2.8-6.4.7-.5 1.5-.7 2.4-.7 1.9 0 3.1 1.1 3.8 2.3.8 1.5.9 3 .9 4.6l-9.9.2zm17.8 11.9c-2.2 1.3-4.9 2.9-9.2 2.9-3.5 0-5.9-1.3-7.4-3.6-.9-1.4-1.1-2.7-1.3-4l19-.4.4-.5c-.1-3.3-.1-6.6-.9-9.9-2.1-7.8-6.6-9.4-8.6-9.9-1.5-.5-2.8-.6-4.2-.6-9.2 0-15.4 6.8-15.4 18.3 0 3.1.5 6.4 1.4 8.7 3.4 9 11.4 9.7 15.6 9.7 4.9 0 7-1 10.1-2.4l.4-.5.4-7.5-.3-.3zM332.6 296.2c3.2 1.4 7.8 3.3 7.8 10.6 0 .5 0 .9-.1 1.5-1.1 9.5-9.9 10.4-14.3 10.4-4.3 0-6.8-1.1-9.6-2.3l-.3-.6c.2-3.3.3-4 .4-7.5l.5-.3c.9.8 1.4 1.3 2.4 1.9 2.2 1.3 4.6 1.9 6.2 1.9 3.3 0 4.6-1.8 4.6-3.5 0-2.4-2.6-3.4-4.2-4l-2.2-.9c-2.8-1.2-7.6-3.3-7.6-10.4 0-2.7.8-4.6 1.6-5.8 3.1-5 8.8-5.2 11.7-5.2 3.8 0 6.2.8 9 1.7l.3.4-.6 7.2-.5.2c-1.5-1.1-3.8-2.8-7.3-2.8-3.6 0-4.1 2.2-4.1 3 0 1.9 1.6 2.6 3.6 3.4l2.7 1.1zM378 296.2c3.2 1.4 7.8 3.3 7.8 10.6 0 .5 0 .9-.1 1.5-1.1 9.5-9.9 10.4-14.3 10.4-4.3 0-6.8-1.1-9.6-2.3l-.3-.6c.2-3.3.3-4 .4-7.5l.5-.3c.9.8 1.4 1.3 2.4 1.9 2.2 1.3 4.6 1.9 6.2 1.9 3.3 0 4.6-1.8 4.6-3.5 0-2.4-2.6-3.4-4.2-4l-2.2-.9c-2.8-1.2-7.6-3.3-7.6-10.4 0-2.7.8-4.6 1.6-5.8 3.1-5 8.8-5.2 11.7-5.2 3.8 0 6.2.8 9 1.7l.3.4-.6 7.2-.5.2c-1.5-1.1-3.8-2.8-7.4-2.8-3.6 0-4.1 2.2-4.1 3 0 1.9 1.6 2.6 3.6 3.4l2.8 1.1zM417.5 283.1c-.8 2.6-1.7 5.2-2.6 7.8-7.8 23.1-9.3 28.7-12.6 43l-.4.4c-1.5 0-3-.1-4.5-.1s-3.2.1-4.6.1l-.3-.5c2.7-6.6 3.1-7.8 5.5-14.7-3.6-12.7-9.1-29.4-11.2-35.7l.3-.5c4.8-.1 5.8-.2 10.4-.6l.5.4 2.4 10.1 1.7 7 1.1 4.7 1.3-5 1.5-5.7c1.4-5.2 1.6-6.2 2.6-10.7l.5-.5 8.2-.2.2.7zM448.7 317.9c-4.7 0-5.7.1-9.6.2l-.4-.4c0-2.3.1-4.6.1-6.8 0-2.5-.1-11.6-.2-13.8-.2-2.4-.5-6.3-3.7-6.3-1.9 0-3.3 1.1-4.5 2.1.1 11.9.1 14.5.5 24.7l-.4.4c-4.7 0-5.6 0-9.8.2l-.4-.4c.1-4.2.1-8.5.1-12.7 0-10.8-.4-15-.8-20.8l.4-.5c4.4-.7 5.4-.9 9.9-1.9l.6.5-.1 3.7c2.7-1.8 5.8-3.9 9.4-3.9 2.1 0 5.5.5 7.3 4 1.5 2.7 1.5 5.8 1.6 12.1v5.2c.1 6.5.1 8.4.4 14.2l-.4.2zM474.7 290.5c.1 8.8 0 10.5-.2 18.6-1.2.8-2.4 1.6-4 1.6-5.7 0-5.7-8.2-5.7-9.6 0-5.1 1.3-10.8 7.9-10.8.6 0 1.2.1 2 .2zm10 27c-.2-6-.4-10-.4-18.6 0-17.5.2-24.7.5-33.5l-.4-.4-9.7 1.7-.3.4c.4 6.2.4 7.9.4 15.5-4.4-.1-9.9-.3-14.4 3.7-4.1 3.6-5.8 9.1-5.8 15.9 0 5.2 1.2 10.3 4.7 13.6 2.6 2.4 5.8 2.9 7.7 2.9 4.2 0 6.4-2.2 7.8-3.6l-.1 2.6.3.4c4.1-.2 5.2-.2 9.6-.2l.1-.4zM501.6 317.9c-4.8-.1-5.9 0-10.2.2l-.4-.5c.2-5.4.4-9.5.4-16.7 0-9.4-.2-11.7-.6-16.8l.4-.4 10.1-2 .4.5c-.1 5.6-.2 11.3-.2 17 0 9.2.2 13.1.5 18.2l-.4.5zm-.8-42c-4.2.6-5.3.7-9.3 1.5l-.4-.4c.1-1.3.1-2.6.1-3.8 0-1.6-.1-3-.2-5.4l.3-.5 9.6-1.3.4.4-.2 9-.3.5zM532 308.7l-.2 8-.4.4c-2.5.8-4.5 1.5-7.6 1.5-13.2 0-16.8-10.3-16.8-18 0-6.8 2.7-18.6 16.5-18.6 3.4 0 5.6.8 8.2 1.7l.3.4c-.5 3.5-.5 4.4-.8 8l-.6.2c-1.8-1.3-3.2-2.4-5.8-2.4-5.7 0-7.6 5.6-7.6 10.4 0 4 1.3 10.2 8 10.2 3 0 4.5-1.1 6.1-2.1l.7.3zM553.2 308.7c-1.2.8-2.8 1.7-4.8 1.7-2.1 0-3.9-1.3-3.9-4 0-4.4 4.6-5.1 8.6-5.7v8zm9.7-10.5c.1-6 .1-8.6-1.5-11.3-1.2-2.1-3.5-4.8-11.1-4.8-5.1 0-8.2 1.1-11.5 2.2l-.4.5-.3 7.2.5.3c2.1-.9 5.9-2.7 9.8-2.7 2.2 0 3.1.4 3.8 1.3.6.7.8 1.9.8 2.8-7.1 1.1-10.3 1.8-13.9 4.2-3.3 2.3-4.4 6.1-4.4 9.1 0 7.1 4.5 11.7 10.3 11.7 4.4 0 6.9-2.4 8.2-3.5v2.5l.4.5c4.2-.2 5.5-.3 9.3-.2l.3-.5c-.4-6.5-.4-8.2-.4-14.4l.1-4.9zM586.7 310.6l-.6 6.8-.4.5c-2.1.4-3.9.8-6.2.8-9.2 0-9.3-6.6-9.3-12.7 0-1.7.1-3.4.1-5l.2-10.5-3.7.1-.4-.4.5-7.1.4-.3 3.2.1-.1-8.3.2-.5c4.2-1.2 5.2-1.5 9.2-2.9l.4.4-.2 11.1h5.9l.4.4-.6 7.1-.4.4-5.3-.3-.1 9.4c-.1 2.7-.1 6.3.1 8 .1 1 .4 3.1 3.4 3.1 1 0 1.7-.3 2.7-.6l.6.4zM605.8 296.2c3.2 1.4 7.8 3.3 7.8 10.6 0 .5 0 .9-.1 1.5-1.1 9.5-9.9 10.4-14.3 10.4-4.3 0-6.8-1.1-9.6-2.3l-.3-.6c.2-3.3.3-4 .4-7.5l.5-.3c.9.8 1.4 1.3 2.4 1.9 2.2 1.3 4.6 1.9 6.2 1.9 3.3 0 4.6-1.8 4.6-3.5 0-2.4-2.6-3.4-4.2-4l-2.2-.9c-2.8-1.2-7.6-3.3-7.6-10.4 0-2.7.8-4.6 1.6-5.8 3.1-5 8.8-5.2 11.7-5.2 3.8 0 6.2.8 9 1.7l.3.4-.6 7.2-.5.2c-1.5-1.1-3.8-2.8-7.4-2.8-3.6 0-4.1 2.2-4.1 3 0 1.9 1.6 2.6 3.6 3.4l2.8 1.1zM20.2 365.8c.1 8.8 0 10.5-.2 18.6-1.2.8-2.4 1.6-4 1.6-5.7 0-5.7-8.2-5.7-9.6 0-5.1 1.3-10.8 7.9-10.8.7 0 1.2.1 2 .2zm10 27c-.2-6-.4-10-.4-18.6 0-17.5.2-24.7.5-33.5l-.4-.4-9.7 1.7-.3.4c.4 6.2.4 7.9.4 15.5-4.4-.1-9.9-.3-14.4 3.7-4.1 3.6-5.8 9.1-5.8 15.9 0 5.2 1.2 10.3 4.7 13.6 2.6 2.4 5.8 2.9 7.7 2.9 4.2 0 6.4-2.2 7.8-3.6l-.1 2.6.3.4c4.1-.2 5.2-.2 9.6-.2l.1-.4zM65.6 358.3c-.1 6.2-.2 12.5-.2 18.7 0 8.6.1 11.1.4 15.9l-.4.4c-3.8 0-5.1 0-9.4.2l-.4-.4.1-3c-2.1 1.9-4.5 4-8.7 4-2.9 0-5.8-1.1-7.7-3.5-2.1-2.8-2.4-5.8-2.4-13.1v-4.6c0-6.7-.1-8.6-.4-14.1l.4-.4 9.7-.5.4.5-.1 13.4c-.1 1.7-.1 3.4-.1 5 0 3.9 0 9 4.2 9 1.6 0 2.8-1 4.4-2.2.1-2.6.1-3.7.1-5.6 0-1.1 0-11.7-.4-19.2l.4-.4 9.6-.5.5.4zM116.8 370.2c0 7-1.1 15.5-8.5 15.5-2.5 0-4.9-1.2-6.4-4-1.9-3.4-2.2-7.8-2.2-12.4 0-2.1.1-4.2.5-6.3 1.1-6 4.1-9.2 8-9.2 3.5 0 5.2 1.7 6.4 3.7 1.6 2.6 2.3 7.5 2.2 12.7zm9.9 34.5l3.1-8.1-.2-.5c-5.8-2.1-6.9-2.5-11.9-4.6 2.2-1.3 4.7-2.8 7-7.3 2.4-4.4 3.1-9.7 3.1-14.9 0-6.4-1.5-14.1-6.1-18.8-3.1-3.2-8.1-5-13.3-5-11.8 0-19.8 8.7-19.8 24.9 0 3.4.5 14.9 7.7 20.2 3.2 2.3 6 3 8.8 3.5l.4.1c5.1 2.5 6.6 3.3 20.7 10.8l.5-.3zM162.4 358.3c-.1 6.2-.2 12.5-.2 18.7 0 8.6.1 11.1.4 15.9l-.4.4c-3.8 0-5.1 0-9.4.2l-.4-.4.1-3c-2.1 1.9-4.5 4-8.7 4-2.9 0-5.8-1.1-7.7-3.5-2.1-2.8-2.4-5.8-2.4-13.1v-4.6c0-6.7-.1-8.6-.4-14.1l.4-.4 9.7-.5.4.5-.1 13.4c-.1 1.7-.1 3.4-.1 5 0 3.9 0 9 4.2 9 1.6 0 2.8-1 4.4-2.2.1-2.6.1-3.7.1-5.6 0-1.1 0-11.7-.4-19.2l.4-.4 9.6-.5.5.4zM177.6 371.5c.2-2.1.6-4.8 2.8-6.4.7-.5 1.5-.7 2.4-.7 1.9 0 3.1 1.1 3.8 2.3.8 1.5.9 3.1.9 4.6l-9.9.2zm13.7-29.5l-9.3.1-.3.3c-1.4 5.2-1.8 6.5-3.6 11.1l.2.4h6.4l.4-.3c1.8-3.4 4.5-8 6.3-11.2l-.1-.4zm4.1 41.4c-2.2 1.3-4.9 2.9-9.2 2.9-3.5 0-5.9-1.3-7.3-3.6-.9-1.4-1.1-2.7-1.3-4l19-.4.4-.5c-.1-3.2-.1-6.6-.9-9.9-2.1-7.8-6.6-9.4-8.6-10-1.5-.5-2.8-.6-4.2-.6-9.2 0-15.4 6.8-15.4 18.3 0 3.1.5 6.4 1.4 8.7 3.4 9 11.4 9.8 15.6 9.8 4.9 0 7-1 10.1-2.4l.4-.5.4-7.5-.4-.3zM212.2 366.5c1.2-.7 2.3-1.3 3.8-1.3 3.9 0 6.1 3.9 6.1 10 0 4.8-1.9 7.9-3.5 9.2-1.9 1.5-4.5 1.6-6.5 1.7v-19.6zm-5.6 26.9h1.2c9.4 0 15.5-.5 19.9-5.9 4.2-5 4.6-11 4.6-13.8 0-9.2-4.7-16.4-12.7-16.4-3.9 0-5.9 1.5-7.6 2.7l.4-19.2-.5-.4-9.8 1.7-.4.5c.5 5.6.6 7.8.6 21.2 0 5.7-.1 17-.1 29.3l.4.5 4-.2zM246.1 371.5c.2-2.1.6-4.8 2.8-6.4.7-.5 1.5-.7 2.4-.7 1.9 0 3.1 1.1 3.8 2.3.8 1.5.9 3.1.9 4.6l-9.9.2zm17.9 11.9c-2.2 1.3-4.9 2.9-9.2 2.9-3.5 0-5.9-1.3-7.4-3.6-.9-1.4-1.1-2.7-1.3-4l19-.4.4-.5c-.1-3.2-.1-6.6-.9-9.9-2.1-7.8-6.6-9.4-8.6-10-1.5-.5-2.8-.6-4.2-.6-9.2 0-15.4 6.8-15.4 18.3 0 3.1.5 6.4 1.4 8.7 3.4 9 11.4 9.8 15.6 9.8 4.9 0 7-1 10.1-2.4l.4-.5.4-7.5-.3-.3zM294.4 384l-.2 8-.4.4c-2.5.8-4.5 1.5-7.6 1.5-13.2 0-16.8-10.4-16.8-18 0-6.8 2.7-18.6 16.5-18.6 3.4 0 5.6.8 8.2 1.7l.3.4c-.5 3.5-.5 4.4-.8 8l-.6.2c-1.8-1.3-3.2-2.4-5.8-2.4-5.7 0-7.6 5.6-7.6 10.4 0 4 1.4 10.2 8 10.2 3 0 4.5-1.1 6.1-2.1l.7.3z"/>
    </g>
</svg>
